<svg width="2052" height="1655" xmlns="http://www.w3.org/2000/svg" xmlns:xlink="http://www.w3.org/1999/xlink" overflow="hidden"><defs><clipPath id="clip0"><rect x="1212" y="325" width="2052" height="1655"/></clipPath><clipPath id="clip1"><rect x="1413" y="326" width="1651" height="1651"/></clipPath><clipPath id="clip2"><rect x="1413" y="326" width="1651" height="1651"/></clipPath></defs><g clip-path="url(#clip0)" transform="translate(-1212 -325)"><path d="M1413.5 602.505C1413.5 450.624 1536.62 327.5 1688.51 327.5L2788.49 327.5C2940.38 327.5 3063.5 450.624 3063.5 602.505L3063.5 1702.49C3063.5 1854.38 2940.38 1977.5 2788.49 1977.5L1688.51 1977.5C1536.62 1977.5 1413.5 1854.38 1413.5 1702.49Z" stroke="#2F528F" stroke-width="4.58333" stroke-miterlimit="8" fill="#383748" fill-rule="evenodd"/><text fill="#FFFFFF" font-family="Vazirmatn Black,Vazirmatn Black_MSFontService,sans-serif" font-weight="900" font-size="440" direction="rtl" writing-mode="rl-tb" transform="translate(2365.84 1235)" x="633.646">رویا</text><text fill="#FFFFFF" font-family="Vazirmatn Black,Vazirmatn Black_MSFontService,sans-serif" font-weight="900" font-size="440" direction="rtl" writing-mode="rl-tb" transform="translate(2228.91 1235)" x="136.927">.</text><text fill="#F0E28E" font-family="Vazirmatn Black,Vazirmatn Black_MSFontService,sans-serif" font-weight="900" font-size="440" direction="rtl" writing-mode="rl-tb" transform="translate(2109.17 1235)" x="119.74">آ</text><text fill="#FFFFFF" font-family="Vazirmatn Black,Vazirmatn Black_MSFontService,sans-serif" font-weight="900" font-size="440" direction="rtl" writing-mode="rl-tb" transform="translate(1972.24 1235)" x="136.927">.</text><text fill="#FFFFFF" font-family="Vazirmatn Black,Vazirmatn Black_MSFontService,sans-serif" font-weight="900" font-size="440" direction="rtl" writing-mode="rl-tb" transform="translate(1476.1 1235)" x="496.146">یی</text><g clip-path="url(#clip1)"><g clip-path="url(#clip2)"><path d="M1051.95 946.861 1051.95 5.87921 3527.9 5.87921 3527.9 71.031 3486.68 100.694C3472.46 110.112 3457.93 118.972 3443.19 127.256 3326.78 192.684 3185.11 229.147 3058.04 187.416 2926.94 144.426 2805.89 21.7152 2674.36 63.3634 2633.1 76.4402 2598.87 104.653 2563.8 129.807 2353.25 280.981 2074.89 336.206 1821.53 276.98 1768.15 264.487 1713.3 247.076 1659.65 258.203 1572.48 276.221 1519.68 360.269 1457.53 423.229 1360.3 521.886 1219.91 577.377 1080.63 572.194 1071.18 571.852 1061.81 571.252 1052.35 570.402L1052.35 946.594Z" fill="#FFFFFF" fill-rule="evenodd" fill-opacity="0.0117647" transform="matrix(1.00002 0 0 1 -89.3204 0.454932)"/><path d="M2475.55 959.63 2475.55 941.059 2475.95 941.333 2475.95 0.649262 0.397722 0.649262 0.397722 63.9609 0.000721819 63.6752 0.000721819 472.118C23.8958 478.817 48.5665 481.626 73.2343 478.478 116.13 472.962 154.377 450.026 191.079 427.424 258.813 385.556 331.793 341.378 411.647 345.03 592.07 353.355 706.651 596.817 885.957 574.81 980.936 563.173 1065 475.255 1157.67 499.207 1225.75 516.791 1262.71 586.794 1310.67 637.766 1413.13 746.581 1595.78 770.707 1723.6 692.123 1761.59 668.768 1800.01 636.152 1844.46 641.41 1885.2 646.256 1914.25 681.255 1941.41 711.577 2075.59 861.175 2274.07 950.032 2475.55 959.63Z" fill="#FFFFFF" fill-rule="evenodd" fill-opacity="0.0117647" transform="matrix(-1.00002 0 0 1 3437.68 15.4547)"/><path d="M2476.55 959.875 2476.55 941.297 2476.95 941.564 2476.95 0.490339 0.397749 0.490339 0.397749 63.8285 0.000360934 63.5427 0.000360934 472.156C23.905 478.858 48.5856 481.668 73.2634 478.519 116.177 473.001 154.439 450.055 191.156 427.443 258.917 385.558 331.927 341.361 411.814 345.015 592.308 353.343 706.935 596.907 886.317 574.891 981.334 563.25 1065.43 475.295 1158.13 499.256 1226.25 516.848 1263.21 586.88 1311.2 637.874 1413.69 746.733 1596.43 770.87 1724.3 692.254 1762.31 668.889 1800.73 636.259 1845.2 641.518 1885.96 646.367 1915.02 681.382 1942.2 711.715 2076.43 861.381 2274.99 950.265 2476.55 959.875ZM2476.55 1336.46 2476.55 960.241C2274.99 950.64 2076.43 861.748 1942.2 712.085 1915.02 681.751 1885.96 646.737 1845.2 641.888 1800.73 636.628 1762.31 669.258 1724.3 692.623 1596.43 771.239 1413.69 747.103 1311.2 638.243 1263.21 587.249 1226.25 517.218 1158.13 499.626 1065.43 475.664 981.334 563.619 886.317 575.261 706.935 597.277 592.308 353.713 411.814 345.385 331.927 341.731 258.917 385.928 191.156 427.813 154.439 450.425 116.177 473.37 73.2634 478.888 48.5856 482.038 23.905 479.228 0.000360934 472.525L0.000360934 749.059C75.5853 704.531 148.079 653.961 230.888 670.449 354.628 694.927 398.657 848.313 498.839 924.12 558.084 969.001 639 984.377 710.889 964.575 803.933 938.914 877.971 859.456 974.023 848.313 1068.97 837.27 1157.44 896.418 1226.59 961.683 1303.63 1034.35 1370.01 1118.57 1454.89 1182.23 1539.76 1245.88 1650.96 1287.6 1753.18 1258.1 1877.61 1222.17 1971.61 1088.06 2100.6 1100.64 2231.14 1113.38 2297.94 1267.37 2418.07 1319.55 2437.17 1327.88 2456.69 1333.23 2476.55 1336.46Z" fill="#FFFFFF" fill-rule="evenodd" fill-opacity="0.0117647" transform="matrix(-1.00002 0 0 1 3438.68 6.45465)"/><path d="M2476.55 959.37 2476.55 940.805 2476.95 941.072 2476.95 0.403104 0.397749 0.403104 0.397749 63.7138 0.000360934 63.4283 0.000360934 471.864C23.905 478.564 48.5856 481.372 73.2634 478.224 116.177 472.709 154.439 449.773 191.156 427.171 258.917 385.304 331.927 341.127 411.814 344.779 592.308 353.104 706.935 596.562 886.317 574.555 981.334 562.918 1065.43 475.002 1158.13 498.953 1226.25 516.537 1263.21 586.539 1311.2 637.51 1413.69 746.322 1596.43 770.449 1724.3 691.866 1762.31 668.511 1800.73 635.896 1845.2 641.154 1885.96 646 1915.02 680.999 1942.2 711.32 2076.43 860.915 2274.99 949.767 2476.55 959.37ZM2476.55 1335.8 2476.55 959.736C2274.99 950.142 2076.43 861.29 1942.2 711.69 1915.02 681.369 1885.96 646.37 1845.2 641.523 1800.73 636.265 1762.31 668.881 1724.3 692.236 1596.43 770.819 1413.69 746.693 1311.2 637.88 1263.21 586.908 1226.25 516.907 1158.13 499.322 1065.43 475.371 981.334 563.288 886.317 574.925 706.935 596.931 592.308 353.473 411.814 345.149 331.927 341.496 258.917 385.673 191.156 427.541 154.439 450.143 116.177 473.078 73.2634 478.594 48.5856 481.742 23.905 478.933 0.000360934 472.234L0.000360934 748.647C75.5853 704.139 148.079 653.591 230.888 670.071 354.628 694.54 398.657 847.861 498.839 923.633 558.084 968.489 639 983.868 710.889 964.072 803.933 938.421 877.971 858.989 974.023 847.861 1068.97 836.824 1157.44 895.942 1226.59 961.179 1303.63 1033.82 1370.01 1118 1454.89 1181.62 1539.76 1245.25 1650.96 1286.96 1753.18 1257.46 1877.61 1221.55 1971.61 1087.5 2100.6 1100.07 2231.14 1112.82 2297.94 1266.73 2418.07 1318.89 2437.17 1327.21 2456.69 1332.56 2476.55 1335.8ZM2414.3 1538.32C2435.02 1538.13 2455.78 1537.45 2476.55 1536.46L2476.55 1337.08C2456.69 1333.86 2437.17 1328.5 2418.07 1320.18 2297.94 1268.03 2231.14 1114.1 2100.6 1101.36 1971.61 1088.79 1877.61 1222.85 1753.18 1258.76 1650.96 1288.24 1539.76 1246.54 1454.89 1182.92 1370.01 1119.29 1303.63 1035.1 1226.59 962.471 1157.44 897.226 1068.97 838.108 974.023 849.153 877.971 860.281 803.933 939.705 710.889 965.363 639 985.152 558.084 969.781 498.839 924.925 398.657 849.153 354.628 695.829 230.888 671.36 148.079 654.88 75.5853 705.427 0.000360934 749.936L0.000360934 990.504C81.5201 974.707 167.081 981.326 250.494 988.22 280.591 990.671 311.805 993.397 337.943 1008.25 369.332 1025.93 388.766 1058.13 411.643 1085.73 503.136 1196.17 669.96 1238.3 803.933 1184.87 869.285 1158.79 934.213 1111.55 1002.92 1127.1 1085.05 1145.7 1119.52 1240.33 1179.46 1298.78 1255.55 1372.94 1373.88 1386.52 1479.65 1371.74 1585.5 1356.96 1686.73 1318.4 1792.49 1303.7 1813.38 1300.81 1835.48 1299.03 1854.92 1307.1 1872.55 1314.41 1885.88 1329.02 1899.21 1342.52 1988.03 1433 2104.56 1496.45 2229.41 1522.37 2290.22 1535.05 2352.11 1538.88 2414.3 1538.32Z" fill="#FFFFFF" fill-rule="evenodd" fill-opacity="0.0117647" transform="matrix(-1.00002 0 0 1 3438.68 6.45465)"/><path d="M2475.55 959.67 2475.55 941.096 2475.95 941.363 2475.95 0.247933 0.397361 0.247933 0.397361 63.5887 0.00036091 63.3029 0.00036091 471.933C23.8954 478.635 48.5661 481.446 73.2339 478.296 116.129 472.777 154.376 449.831 191.079 427.218 258.812 385.332 331.793 341.133 411.647 344.787 592.069 353.115 706.65 596.689 885.957 574.672 980.935 563.03 1065 475.072 1157.66 499.034 1225.75 516.627 1262.71 586.662 1310.67 637.657 1413.12 746.521 1595.78 770.659 1723.6 692.039 1761.59 668.673 1800.01 636.042 1844.46 641.303 1885.2 646.151 1914.25 681.167 1941.41 711.502 2075.59 861.17 2274.07 950.066 2475.55 959.67ZM2475.55 1336.28 2475.55 960.036C2274.07 950.433 2075.59 861.537 1941.41 711.873 1914.25 681.537 1885.2 646.52 1844.46 641.672 1800.01 636.412 1761.59 669.043 1723.6 692.409 1595.78 771.029 1413.12 746.891 1310.67 638.027 1262.71 587.031 1225.75 516.997 1157.66 499.404 1065 475.441 980.935 563.399 885.957 575.043 706.65 597.059 592.069 353.486 411.647 345.157 331.793 341.502 258.812 385.701 191.079 427.588 154.376 450.201 116.129 473.148 73.2339 478.665 48.5661 481.815 23.8954 479.006 0.00036091 472.302L0.00036091 748.847C75.5546 704.317 148.019 653.745 230.795 670.234 354.484 694.714 398.496 848.107 498.637 923.916 557.859 968.798 638.742 984.177 710.602 964.371 803.608 938.712 877.62 859.244 973.625 848.107 1068.54 837.062 1156.98 896.207 1226.09 961.478 1303.1 1034.15 1369.46 1118.38 1454.3 1182.03 1539.13 1245.69 1650.29 1287.41 1752.48 1257.91 1876.85 1221.98 1970.81 1087.86 2099.75 1100.44 2230.24 1113.19 2297.01 1267.18 2417.09 1319.36 2436.18 1327.69 2455.7 1333.04 2475.55 1336.28ZM2305.4 1534.25 2289.63 1532.97 2281.3 1531.62ZM2361.63 1538.14 2351.28 1537.96 2336.45 1536.76ZM2399.19 1883.64C2412.88 1882.78 2426.46 1880.88 2439.88 1877.62 2452.09 1874.65 2463.95 1870.57 2475.55 1865.9L2475.55 1537.17C2454.79 1538.17 2434.04 1538.85 2413.32 1539.03L2394.02 1538.7 2413.32 1538.9C2434.04 1538.71 2454.79 1538.03 2475.55 1537.03L2475.55 1337.56C2455.7 1334.33 2436.18 1328.98 2417.09 1320.65 2297.01 1268.47 2230.24 1114.48 2099.75 1101.74 1970.81 1089.16 1876.85 1223.27 1752.48 1259.2 1650.29 1288.7 1539.13 1246.97 1454.3 1183.32 1369.46 1119.67 1303.1 1035.45 1226.09 962.771 1156.98 897.499 1068.54 838.354 973.625 849.399 877.62 860.537 803.608 939.996 710.602 965.663 638.742 985.47 557.859 970.09 498.637 925.207 398.496 849.399 354.484 696.004 230.795 671.523 148.019 655.035 75.5546 705.607 0.00036091 750.137L0.00036091 990.821C81.4872 975.016 167.014 981.635 250.392 988.529 280.478 990.988 311.679 993.714 337.807 1008.58 369.183 1026.26 388.609 1058.47 411.477 1086.1 502.932 1196.58 669.69 1238.73 803.608 1185.27 868.934 1159.18 933.834 1111.92 1002.52 1127.48 1084.61 1146.09 1119.07 1240.77 1178.98 1299.24 1255.05 1373.44 1373.33 1387.03 1479.05 1372.24 1584.86 1357.45 1686.05 1318.87 1791.76 1304.16 1812.65 1301.28 1834.74 1299.49 1854.17 1307.57 1871.79 1314.88 1885.12 1329.49 1898.44 1343.01 1987.23 1433.52 2103.71 1497 2228.51 1522.93L2240.81 1525.06 2228.51 1523.07C2103.71 1497.14 1987.23 1433.66 1898.44 1343.14 1885.12 1329.63 1871.79 1315.01 1854.17 1307.7 1834.74 1299.62 1812.65 1301.41 1791.76 1304.3 1686.05 1319 1584.86 1357.58 1479.05 1372.38 1373.33 1387.16 1255.05 1373.57 1178.98 1299.38 1119.07 1240.91 1084.61 1146.23 1002.52 1127.61 933.834 1112.06 868.934 1159.32 803.608 1185.42 669.69 1238.87 502.932 1196.72 411.477 1086.23 388.609 1058.6 369.183 1026.4 337.807 1008.71 311.679 993.848 280.478 991.122 250.392 988.67 167.014 981.777 81.4872 975.158 0.00036091 990.955L0.00036091 1507.18C232.256 1344.67 534.65 1278.56 812.804 1341.44 875.636 1355.63 938.469 1376.55 988.588 1416.57 1037.5 1455.67 1071.36 1510.57 1119.93 1550.09 1209.67 1623.27 1334.3 1633.29 1450.42 1640.18 1480.17 1641.96 1510.51 1643.66 1539.4 1636.61 1604.39 1620.97 1653.81 1563.77 1719.65 1552.39 1789.53 1540.23 1857.44 1583.15 1906.17 1634.14 1954.82 1685.13 1993.25 1746.32 2049.64 1788.9 2114.11 1837.43 2195.86 1856.89 2275.44 1871.85 2316.18 1879.49 2358.14 1886.24 2399.19 1883.64Z" fill="#FFFFFF" fill-rule="evenodd" fill-opacity="0.0117647" transform="matrix(-1.00002 0 0 1 3438.68 18.4545)"/><path d="M2476.55 959.302 2476.55 940.723 2476.95 940.999 2476.95 0.173917 0.397388 0.173917 0.397388 63.4952 0 63.2095 0 471.713C23.9046 478.413 48.5853 481.222 73.263 478.073 116.176 472.557 154.439 449.618 191.155 427.012 258.916 385.138 331.927 340.953 411.814 344.606 592.308 352.932 706.935 596.431 886.316 574.421 981.334 562.782 1065.43 474.851 1158.13 498.805 1226.25 516.393 1263.21 586.406 1311.2 637.385 1413.69 746.216 1596.43 770.347 1724.3 691.751 1762.31 668.392 1800.73 635.771 1845.2 641.03 1885.96 645.877 1915.02 680.881 1942.2 711.208 2076.43 860.829 2274.99 949.7 2476.55 959.302ZM2476.55 1335.78 2476.55 959.668C2274.99 950.066 2076.43 861.196 1942.2 711.578 1915.02 681.252 1885.96 646.246 1845.2 641.399 1800.73 636.14 1762.31 668.761 1724.3 692.12 1596.43 770.716 1413.69 746.586 1311.2 637.755 1263.21 586.775 1226.25 516.762 1158.13 499.175 1065.43 475.22 981.334 563.151 886.316 574.79 706.935 596.8 592.308 353.301 411.814 344.976 331.927 341.323 258.916 385.507 191.155 427.382 154.439 449.987 116.176 472.927 73.263 478.443 48.5853 481.592 23.9046 478.783 0 472.082L0 748.541C75.5849 704.025 148.078 653.469 230.888 669.953 354.628 694.424 398.657 847.769 498.838 923.563 558.084 968.42 639 983.796 710.888 964.002 803.933 938.348 877.971 858.904 974.022 847.769 1068.97 836.725 1157.44 895.859 1226.59 961.11 1303.63 1033.75 1370.01 1117.95 1454.89 1181.59 1539.76 1245.23 1650.96 1286.93 1753.18 1257.45 1877.61 1221.53 1971.61 1087.45 2100.6 1100.03 2231.14 1112.77 2297.94 1266.72 2418.07 1318.88 2437.16 1327.2 2456.69 1332.55 2476.55 1335.78ZM2306.33 1533.69 2290.55 1532.42 2282.22 1531.07ZM2362.58 1537.58 2352.23 1537.41 2337.39 1536.21ZM2318.73 1877.87 2317.44 1877.73 2312.95 1876.96ZM2476.55 2067.13 2476.55 1865.24 2476.55 1865.24 2476.55 1536.62C2455.78 1537.62 2435.02 1538.29 2414.3 1538.48L2394.99 1538.14 2414.3 1538.34C2435.02 1538.16 2455.78 1537.48 2476.55 1536.48L2476.55 1337.08C2456.69 1333.84 2437.16 1328.49 2418.07 1320.17 2297.94 1268.01 2231.14 1114.06 2100.6 1101.32 1971.61 1088.75 1877.61 1222.82 1753.18 1258.73 1650.96 1288.23 1539.76 1246.51 1454.89 1182.88 1370.01 1119.24 1303.63 1035.05 1226.59 962.402 1157.44 897.143 1068.97 838.017 974.022 849.061 877.971 860.196 803.933 939.632 710.888 965.286 639 985.088 558.084 969.711 498.838 924.846 398.657 849.061 354.628 695.713 230.888 671.242 148.078 654.758 75.5849 705.315 0 749.83L0 990.439C81.5198 974.644 167.081 981.262 250.494 988.155 280.591 990.605 311.805 993.331 337.943 1008.19 369.332 1025.87 388.766 1058.07 411.643 1085.69 503.135 1196.14 669.96 1238.27 803.933 1184.84 869.284 1158.75 934.213 1111.51 1002.92 1127.05 1085.05 1145.66 1119.52 1240.31 1179.46 1298.76 1255.55 1372.93 1373.88 1386.52 1479.65 1371.74 1585.5 1356.95 1686.73 1318.39 1792.49 1303.68 1813.38 1300.8 1835.48 1299.01 1854.92 1307.09 1872.55 1314.39 1885.88 1329.01 1899.2 1342.52 1988.03 1433 2104.56 1496.46 2229.41 1522.38L2241.71 1524.51 2229.41 1522.52C2104.56 1496.6 1988.03 1433.14 1899.2 1342.65 1885.88 1329.14 1872.55 1314.53 1854.92 1307.22 1835.48 1299.15 1813.38 1300.94 1792.49 1303.82 1686.73 1318.52 1585.5 1357.1 1479.65 1371.88 1373.88 1386.66 1255.55 1373.07 1179.46 1298.9 1119.52 1240.45 1085.05 1145.8 1002.92 1127.19 934.213 1111.64 869.284 1158.88 803.933 1184.97 669.96 1238.41 503.135 1196.27 411.643 1085.82 388.766 1058.21 369.332 1026 337.943 1008.32 311.805 993.464 280.591 990.739 250.494 988.288 167.081 981.396 81.5198 974.778 0 990.572L0 1506.14 0 1506.14 0 1846.57C107.658 1777.75 239.485 1739.95 366.496 1711.75 503.22 1681.32 657.233 1660.42 774.352 1736.37 817.607 1764.41 852.693 1804.18 898.78 1827.2 992.598 1874.27 1106.19 1841.64 1202.68 1800.17 1299.16 1758.72 1399.08 1707.75 1503.47 1720.66 1682.43 1742.76 1789.64 1938.33 1961.11 1993.55 2029.17 2015.43 2101.29 2013.23 2173.53 2011.02 2239.59 2009 2305.76 2006.97 2369.06 2023.38 2406.8 2033.23 2442.06 2049.11 2476.55 2067.13Z" fill="#FFFFFF" fill-rule="evenodd" fill-opacity="0.0117647" transform="matrix(-1.00002 0 0 1 3439.68 6.45465)"/></g></g></g></svg>