<svg width="2479" height="2475" xmlns="http://www.w3.org/2000/svg" xmlns:xlink="http://www.w3.org/1999/xlink" overflow="hidden"><defs><clipPath id="clip0"><rect x="1050" y="0" width="2479" height="2475"/></clipPath></defs><g clip-path="url(#clip0)" transform="translate(-1050 0)"><path d="M1051.97 946.88 1051.97 5.87933 3527.97 5.87933 3527.97 71.0324 3486.75 100.696C3472.53 110.114 3458 118.974 3443.26 127.259 3326.85 192.688 3185.17 229.152 3058.1 187.42 2927 144.429 2805.95 21.7156 2674.41 63.3647 2633.15 76.4417 2598.92 104.655 2563.85 129.81 2353.3 280.987 2074.93 336.213 1821.57 276.986 1768.19 264.492 1713.33 247.081 1659.68 258.208 1572.51 276.227 1519.71 360.276 1457.56 423.237 1360.33 521.896 1219.93 577.389 1080.65 572.205 1071.2 571.863 1061.83 571.263 1052.37 570.413L1052.37 946.613Z" fill="#FFFFFF" fill-rule="evenodd" fill-opacity="0.0117647"/><path d="M2475.6 959.649 2475.6 941.078 2476 941.352 2476 0.649275 0.39773 0.649275 0.39773 63.9622 0.000721833 63.6765 0.000721833 472.127C23.8963 478.827 48.5675 481.636 73.2358 478.488 116.132 472.971 154.38 450.035 191.083 427.433 258.818 385.564 331.8 341.385 411.655 345.037 592.082 353.362 706.665 596.829 885.975 574.822 980.956 563.184 1065.02 475.265 1157.69 499.217 1225.77 516.801 1262.74 586.806 1310.7 637.779 1413.16 746.596 1595.81 770.722 1723.63 692.137 1761.63 668.781 1800.05 636.165 1844.5 641.423 1885.24 646.269 1914.29 681.269 1941.45 711.591 2075.63 861.192 2274.12 950.051 2475.6 959.649Z" fill="#FFFFFF" fill-rule="evenodd" fill-opacity="0.0117647" transform="matrix(-1 0 0 1 3527 15.0001)"/><path d="M2476.6 959.894 2476.6 941.316 2477 941.583 2477 0.490349 0.397757 0.490349 0.397757 63.8298 0.000360941 63.544 0.000360941 472.165C23.9055 478.868 48.5866 481.678 73.2649 478.529 116.179 473.01 154.442 450.064 191.16 427.452 258.922 385.566 331.934 341.368 411.822 345.022 592.32 353.35 706.949 596.919 886.335 574.903 981.354 563.261 1065.45 475.305 1158.15 499.266 1226.27 516.858 1263.24 586.892 1311.23 637.887 1413.72 746.748 1596.46 770.885 1724.33 692.268 1762.35 668.902 1800.77 636.272 1845.24 641.531 1886 646.38 1915.06 681.396 1942.24 711.729 2076.47 861.398 2275.04 950.284 2476.6 959.894ZM2476.6 1336.49 2476.6 960.26C2275.04 950.659 2076.47 861.765 1942.24 712.099 1915.06 681.765 1886 646.75 1845.24 641.901 1800.77 636.641 1762.35 669.271 1724.33 692.637 1596.46 771.254 1413.72 747.118 1311.23 638.256 1263.24 587.261 1226.27 517.228 1158.15 499.636 1065.45 475.674 981.354 563.63 886.335 575.273 706.949 597.289 592.32 353.72 411.822 345.392 331.934 341.738 258.922 385.936 191.16 427.822 154.442 450.434 116.179 473.379 73.2649 478.898 48.5866 482.048 23.9055 479.238 0.000360941 472.534L0.000360941 749.074C75.5868 704.545 148.082 653.974 230.893 670.462 354.635 694.941 398.665 848.33 498.849 924.139 558.095 969.02 639.013 984.397 710.903 964.594 803.949 938.933 877.989 859.473 974.043 848.33 1068.99 837.287 1157.46 896.436 1226.61 961.702 1303.66 1034.37 1370.04 1118.59 1454.92 1182.25 1539.79 1245.9 1650.99 1287.63 1753.22 1258.13 1877.65 1222.19 1971.65 1088.08 2100.64 1100.66 2231.18 1113.4 2297.99 1267.4 2418.12 1319.58 2437.22 1327.91 2456.74 1333.26 2476.6 1336.49Z" fill="#FFFFFF" fill-rule="evenodd" fill-opacity="0.0117647" transform="matrix(-1 0 0 1 3528 5.99984)"/><path d="M2476.6 959.389 2476.6 940.824 2477 941.091 2477 0.403112 0.397757 0.403112 0.397757 63.7151 0.000360941 63.4296 0.000360941 471.873C23.9055 478.574 48.5866 481.382 73.2649 478.234 116.179 472.718 154.442 449.782 191.16 427.18 258.922 385.312 331.934 341.134 411.822 344.786 592.32 353.111 706.949 596.574 886.335 574.567 981.354 562.929 1065.45 475.012 1158.15 498.963 1226.27 516.547 1263.24 586.551 1311.23 637.523 1413.72 746.337 1596.46 770.464 1724.33 691.88 1762.35 668.524 1800.77 635.909 1845.24 641.167 1886 646.013 1915.06 681.013 1942.24 711.334 2076.47 860.932 2275.04 949.786 2476.6 959.389ZM2476.6 1335.83 2476.6 959.755C2275.04 950.161 2076.47 861.307 1942.24 711.704 1915.06 681.383 1886 646.383 1845.24 641.536 1800.77 636.278 1762.35 668.894 1724.33 692.25 1596.46 770.834 1413.72 746.708 1311.23 637.893 1263.24 586.92 1226.27 516.917 1158.15 499.332 1065.45 475.381 981.354 563.299 886.335 574.937 706.949 596.943 592.32 353.48 411.822 345.156 331.934 341.503 258.922 385.681 191.16 427.55 154.442 450.152 116.179 473.087 73.2649 478.604 48.5866 481.752 23.9055 478.943 0.000360941 472.243L0.000360941 748.662C75.5868 704.153 148.082 653.604 230.893 670.084 354.635 694.554 398.665 847.878 498.849 923.652 558.095 968.508 639.013 983.888 710.903 964.091 803.949 938.44 877.989 859.006 974.043 847.878 1068.99 836.841 1157.46 895.96 1226.61 961.198 1303.66 1033.84 1370.04 1118.02 1454.92 1181.64 1539.79 1245.27 1650.99 1286.99 1753.22 1257.49 1877.65 1221.57 1971.65 1087.52 2100.64 1100.09 2231.18 1112.84 2297.99 1266.76 2418.12 1318.92 2437.22 1327.24 2456.74 1332.59 2476.6 1335.83ZM2414.35 1538.35C2435.07 1538.16 2455.83 1537.48 2476.6 1536.49L2476.6 1337.11C2456.74 1333.89 2437.22 1328.53 2418.12 1320.21 2297.99 1268.06 2231.18 1114.12 2100.64 1101.38 1971.65 1088.81 1877.65 1222.87 1753.22 1258.79 1650.99 1288.27 1539.79 1246.57 1454.92 1182.94 1370.04 1119.31 1303.66 1035.12 1226.61 962.49 1157.46 897.244 1068.99 838.125 974.043 849.17 877.989 860.298 803.949 939.724 710.903 965.382 639.013 985.172 558.095 969.8 498.849 924.944 398.665 849.17 354.635 695.843 230.893 671.373 148.082 654.893 75.5868 705.441 0.000360941 749.951L0.000360941 990.524C81.5217 974.727 167.084 981.346 250.499 988.24 280.597 990.691 311.811 993.417 337.95 1008.27 369.339 1025.95 388.774 1058.15 411.651 1085.75 503.146 1196.19 669.973 1238.32 803.949 1184.89 869.302 1158.81 934.232 1111.57 1002.94 1127.12 1085.07 1145.72 1119.54 1240.35 1179.48 1298.81 1255.58 1372.97 1373.91 1386.55 1479.68 1371.77 1585.53 1356.99 1686.76 1318.43 1792.53 1303.73 1813.42 1300.84 1835.52 1299.06 1854.96 1307.13 1872.59 1314.44 1885.92 1329.05 1899.25 1342.55 1988.07 1433.03 2104.6 1496.48 2229.45 1522.4 2290.27 1535.08 2352.16 1538.91 2414.35 1538.35Z" fill="#FFFFFF" fill-rule="evenodd" fill-opacity="0.0117647" transform="matrix(-1 0 0 1 3528 5.99984)"/><path d="M2475.6 959.689 2475.6 941.115 2476 941.382 2476 0.247938 0.397369 0.247938 0.397369 63.59 0.000360917 63.3042 0.000360917 471.942C23.8959 478.645 48.5671 481.456 73.2354 478.306 116.131 472.786 154.379 449.84 191.083 427.227 258.817 385.34 331.8 341.14 411.655 344.794 592.081 353.122 706.664 596.701 885.975 574.684 980.955 563.041 1065.02 475.082 1157.68 499.044 1225.77 516.637 1262.74 586.674 1310.7 637.67 1413.15 746.536 1595.81 770.674 1723.63 692.053 1761.63 668.686 1800.05 636.055 1844.5 641.316 1885.24 646.164 1914.29 681.181 1941.45 711.516 2075.63 861.187 2274.12 950.085 2475.6 959.689ZM2475.6 1336.31 2475.6 960.055C2274.12 950.452 2075.63 861.554 1941.45 711.887 1914.29 681.551 1885.24 646.533 1844.5 641.685 1800.05 636.425 1761.63 669.056 1723.63 692.423 1595.81 771.044 1413.15 746.906 1310.7 638.04 1262.74 587.043 1225.77 517.007 1157.68 499.414 1065.02 475.451 980.955 563.41 885.975 575.055 706.664 597.071 592.081 353.493 411.655 345.164 331.8 341.509 258.817 385.709 191.083 427.597 154.379 450.21 116.131 473.157 73.2354 478.675 48.5671 481.825 23.8959 479.016 0.000360917 472.311L0.000360917 748.862C75.5561 704.331 148.022 653.758 230.8 670.247 354.491 694.728 398.504 848.124 498.647 923.934 557.87 968.817 638.755 984.197 710.616 964.39 803.624 938.731 877.638 859.261 973.644 848.124 1068.56 837.079 1157 896.225 1226.11 961.497 1303.13 1034.17 1369.49 1118.4 1454.33 1182.05 1539.16 1245.71 1650.32 1287.44 1752.52 1257.94 1876.89 1222 1970.85 1087.88 2099.79 1100.46 2230.28 1113.21 2297.06 1267.21 2417.14 1319.39 2436.23 1327.72 2455.75 1333.07 2475.6 1336.31ZM2305.45 1534.28 2289.68 1533 2281.35 1531.65ZM2361.68 1538.17 2351.33 1537.99 2336.5 1536.79ZM2399.24 1883.68C2412.93 1882.82 2426.51 1880.92 2439.93 1877.66 2452.14 1874.69 2464 1870.61 2475.6 1865.94L2475.6 1537.2C2454.84 1538.2 2434.09 1538.88 2413.37 1539.06L2394.07 1538.73 2413.37 1538.93C2434.09 1538.74 2454.84 1538.06 2475.6 1537.06L2475.6 1337.59C2455.75 1334.36 2436.23 1329.01 2417.14 1320.68 2297.06 1268.5 2230.28 1114.5 2099.79 1101.76 1970.85 1089.18 1876.89 1223.29 1752.52 1259.23 1650.32 1288.73 1539.16 1247 1454.33 1183.34 1369.49 1119.69 1303.13 1035.47 1226.11 962.79 1157 897.517 1068.56 838.371 973.644 849.416 877.638 860.554 803.624 940.015 710.616 965.682 638.755 985.49 557.87 970.109 498.647 925.226 398.504 849.416 354.491 696.018 230.8 671.536 148.022 655.048 75.5561 705.621 0.000360917 750.152L0.000360917 990.841C81.4888 975.036 167.017 981.655 250.397 988.549 280.484 991.008 311.685 993.734 337.814 1008.6 369.19 1026.28 388.617 1058.49 411.485 1086.12 502.942 1196.6 669.703 1238.75 803.624 1185.29 868.951 1159.2 933.853 1111.94 1002.54 1127.5 1084.63 1146.11 1119.09 1240.79 1179 1299.27 1255.08 1373.47 1373.36 1387.06 1479.08 1372.27 1584.89 1357.48 1686.08 1318.9 1791.8 1304.19 1812.69 1301.31 1834.78 1299.52 1854.21 1307.6 1871.83 1314.91 1885.16 1329.52 1898.48 1343.04 1987.27 1433.55 2103.75 1497.03 2228.55 1522.96L2240.85 1525.09 2228.55 1523.1C2103.75 1497.17 1987.27 1433.69 1898.48 1343.17 1885.16 1329.66 1871.83 1315.04 1854.21 1307.73 1834.78 1299.65 1812.69 1301.44 1791.8 1304.33 1686.08 1319.03 1584.89 1357.61 1479.08 1372.41 1373.36 1387.19 1255.08 1373.6 1179 1299.41 1119.09 1240.93 1084.63 1146.25 1002.54 1127.63 933.853 1112.08 868.951 1159.34 803.624 1185.44 669.703 1238.89 502.942 1196.74 411.485 1086.25 388.617 1058.62 369.19 1026.42 337.814 1008.73 311.685 993.868 280.484 991.142 250.397 988.69 167.017 981.797 81.4888 975.178 0.000360917 990.975L0.000360917 1507.21C232.261 1344.7 534.661 1278.59 812.82 1341.47 875.654 1355.66 938.488 1376.58 988.608 1416.6 1037.52 1455.7 1071.38 1510.6 1119.95 1550.12 1209.69 1623.3 1334.33 1633.32 1450.45 1640.21 1480.2 1641.99 1510.54 1643.69 1539.43 1636.64 1604.42 1621 1653.84 1563.8 1719.68 1552.42 1789.57 1540.26 1857.48 1583.18 1906.21 1634.17 1954.86 1685.16 1993.29 1746.36 2049.68 1788.94 2114.15 1837.47 2195.9 1856.93 2275.49 1871.89 2316.23 1879.53 2358.19 1886.28 2399.24 1883.68Z" fill="#FFFFFF" fill-rule="evenodd" fill-opacity="0.0117647" transform="matrix(-1 0 0 1 3528 17.9999)"/><path d="M2476.6 959.321 2476.6 940.742 2477 941.018 2477 0.17392 0.397396 0.17392 0.397396 63.4965 0 63.2108 0 471.722C23.9051 478.423 48.5863 481.232 73.2645 478.083 116.178 472.566 154.442 449.627 191.159 427.021 258.921 385.146 331.934 340.96 411.822 344.613 592.32 352.939 706.949 596.443 886.334 574.432 981.354 562.793 1065.45 474.861 1158.15 498.815 1226.27 516.403 1263.24 586.418 1311.23 637.398 1413.72 746.231 1596.46 770.362 1724.33 691.765 1762.35 668.405 1800.77 635.784 1845.24 641.043 1886 645.89 1915.06 680.895 1942.24 711.222 2076.47 860.846 2275.04 949.719 2476.6 959.321ZM2476.6 1335.81 2476.6 959.687C2275.04 950.085 2076.47 861.213 1942.24 711.592 1915.06 681.266 1886 646.259 1845.24 641.412 1800.77 636.153 1762.35 668.774 1724.33 692.134 1596.46 770.731 1413.72 746.601 1311.23 637.768 1263.24 586.787 1226.27 516.772 1158.15 499.185 1065.45 475.23 981.354 563.162 886.334 574.802 706.949 596.812 592.32 353.308 411.822 344.983 331.934 341.33 258.921 385.515 191.159 427.391 154.442 449.996 116.178 472.936 73.2645 478.453 48.5863 481.602 23.9051 478.793 0 472.091L0 748.556C75.5864 704.039 148.081 653.482 230.893 669.966 354.635 694.438 398.665 847.786 498.848 923.582 558.095 968.439 639.013 983.816 710.902 964.021 803.949 938.367 877.989 858.921 974.042 847.786 1068.99 836.742 1157.46 895.877 1226.61 961.129 1303.66 1033.77 1370.04 1117.97 1454.92 1181.61 1539.79 1245.25 1650.99 1286.96 1753.22 1257.48 1877.65 1221.55 1971.65 1087.47 2100.64 1100.05 2231.18 1112.79 2297.99 1266.75 2418.12 1318.91 2437.21 1327.23 2456.74 1332.58 2476.6 1335.81ZM2306.38 1533.72 2290.6 1532.45 2282.27 1531.1ZM2362.63 1537.61 2352.28 1537.44 2337.44 1536.24ZM2318.78 1877.91 2317.49 1877.77 2313 1877ZM2476.6 2067.17 2476.6 1865.28 2476.6 1865.28 2476.6 1536.65C2455.83 1537.65 2435.07 1538.32 2414.35 1538.51L2395.04 1538.17 2414.35 1538.37C2435.07 1538.19 2455.83 1537.51 2476.6 1536.51L2476.6 1337.11C2456.74 1333.87 2437.21 1328.52 2418.12 1320.2 2297.99 1268.04 2231.18 1114.08 2100.64 1101.34 1971.65 1088.77 1877.65 1222.84 1753.22 1258.76 1650.99 1288.26 1539.79 1246.53 1454.92 1182.9 1370.04 1119.26 1303.66 1035.07 1226.61 962.421 1157.46 897.161 1068.99 838.034 974.042 849.078 877.989 860.213 803.949 939.651 710.902 965.305 639.013 985.108 558.095 969.73 498.848 924.865 398.665 849.078 354.635 695.727 230.893 671.255 148.081 654.771 75.5864 705.329 0 749.845L0 990.459C81.5214 974.664 167.084 981.282 250.499 988.175 280.597 990.625 311.811 993.351 337.95 1008.21 369.339 1025.89 388.774 1058.09 411.651 1085.71 503.145 1196.16 669.973 1238.29 803.949 1184.86 869.301 1158.77 934.232 1111.53 1002.94 1127.07 1085.07 1145.68 1119.54 1240.33 1179.48 1298.79 1255.58 1372.96 1373.91 1386.55 1479.68 1371.77 1585.53 1356.98 1686.76 1318.42 1792.53 1303.71 1813.42 1300.83 1835.52 1299.04 1854.96 1307.12 1872.59 1314.42 1885.92 1329.04 1899.24 1342.55 1988.07 1433.03 2104.6 1496.49 2229.45 1522.41L2241.75 1524.54 2229.45 1522.55C2104.6 1496.63 1988.07 1433.17 1899.24 1342.68 1885.92 1329.17 1872.59 1314.56 1854.96 1307.25 1835.52 1299.18 1813.42 1300.97 1792.53 1303.85 1686.76 1318.55 1585.53 1357.13 1479.68 1371.91 1373.91 1386.69 1255.58 1373.1 1179.48 1298.93 1119.54 1240.47 1085.07 1145.82 1002.94 1127.21 934.232 1111.66 869.301 1158.9 803.949 1184.99 669.973 1238.43 503.145 1196.29 411.651 1085.84 388.774 1058.23 369.339 1026.02 337.95 1008.34 311.811 993.484 280.597 990.759 250.499 988.308 167.084 981.416 81.5214 974.798 0 990.592L0 1506.17 0 1506.17 0 1846.61C107.66 1777.79 239.49 1739.98 366.503 1711.78 503.23 1681.35 657.246 1660.45 774.367 1736.4 817.623 1764.45 852.71 1804.22 898.798 1827.24 992.618 1874.31 1106.21 1841.68 1202.7 1800.21 1299.19 1758.76 1399.11 1707.78 1503.5 1720.69 1682.46 1742.79 1789.68 1938.37 1961.15 1993.59 2029.21 2015.47 2101.33 2013.27 2173.57 2011.06 2239.64 2009.04 2305.81 2007.01 2369.11 2023.42 2406.85 2033.27 2442.11 2049.15 2476.6 2067.17Z" fill="#FFFFFF" fill-rule="evenodd" fill-opacity="0.0117647" transform="matrix(-1 0 0 1 3529 5.99984)"/><path d="M2475.6 959.406 2475.6 940.825 2476 941.092 2476 0 0.39773 0 0.39773 63.3395 0.000721833 63.054 0.000721833 471.676C23.8963 478.379 48.5675 481.189 73.2358 478.039 116.132 472.52 154.38 449.575 191.083 426.962 258.818 385.077 331.8 340.878 411.655 344.533 592.082 352.86 706.665 596.43 885.975 574.413 980.956 562.771 1065.02 474.815 1157.69 498.776 1225.77 516.369 1262.74 586.402 1310.7 637.397 1413.16 746.259 1595.81 770.396 1723.63 691.778 1761.63 668.412 1800.05 635.782 1844.5 641.043 1885.24 645.891 1914.29 680.906 1941.45 711.24 2075.63 860.907 2274.12 949.803 2475.6 959.406ZM2475.6 1336 2475.6 959.773C2274.12 950.17 2075.63 861.273 1941.45 711.61 1914.29 681.275 1885.24 646.26 1844.5 641.412 1800.05 636.152 1761.63 668.782 1723.63 692.147 1595.81 770.765 1413.16 746.629 1310.7 637.767 1262.74 586.772 1225.77 516.738 1157.69 499.146 1065.02 475.184 980.956 563.14 885.975 574.784 706.665 596.799 592.082 353.231 411.655 344.902 331.8 341.248 258.818 385.446 191.083 427.332 154.38 449.944 116.132 472.89 73.2358 478.409 48.5675 481.558 23.8963 478.749 0.000721833 472.045L0.000721833 748.585C75.5564 704.055 148.022 653.485 230.801 669.972 354.492 694.452 398.504 847.844 498.647 923.653 557.87 968.534 638.755 983.906 710.616 964.108 803.625 938.441 877.638 858.981 973.644 847.844 1068.56 836.798 1157 895.943 1226.11 961.215 1303.13 1033.88 1369.49 1118.1 1454.33 1181.76 1539.16 1245.41 1650.32 1287.14 1752.52 1257.64 1876.89 1221.7 1970.86 1087.59 2099.79 1100.17 2230.28 1112.92 2297.06 1266.91 2417.14 1319.09 2436.23 1327.42 2455.75 1332.77 2475.6 1336ZM2305.45 1533.97 2289.68 1532.69 2281.35 1531.34ZM2361.68 1537.86 2351.33 1537.68 2336.5 1536.48ZM2317.84 1878.24 2316.56 1878.1 2312.07 1877.33ZM2475.6 2067.56 2475.6 1865.62 2475.6 1536.89C2454.84 1537.89 2434.09 1538.57 2413.37 1538.75L2394.07 1538.42 2413.37 1538.62C2434.09 1538.43 2454.84 1537.75 2475.6 1536.76L2475.6 1337.29C2455.75 1334.06 2436.23 1328.71 2417.14 1320.38 2297.06 1268.2 2230.28 1114.21 2099.79 1101.46 1970.86 1088.88 1876.89 1222.99 1752.52 1258.93 1650.32 1288.43 1539.16 1246.7 1454.33 1183.05 1369.49 1119.39 1303.13 1035.17 1226.11 962.508 1157 897.235 1068.56 838.091 973.644 849.136 877.638 860.273 803.625 939.733 710.616 965.392 638.755 985.198 557.87 969.818 498.647 924.945 398.504 849.136 354.492 695.742 230.801 671.262 148.022 654.775 75.5564 705.345 0.000721833 749.874L0.000721833 990.55C81.4892 974.753 167.017 981.372 250.398 988.266 280.484 990.717 311.686 993.443 337.815 1008.31 369.191 1026 388.618 1058.2 411.485 1085.82 502.942 1196.3 669.703 1238.46 803.625 1185 868.952 1158.91 933.853 1111.66 1002.54 1127.2 1084.63 1145.82 1119.09 1240.49 1179 1298.97 1255.08 1373.16 1373.36 1386.75 1479.08 1371.97 1584.89 1357.18 1686.08 1318.6 1791.8 1303.89 1812.69 1301 1834.78 1299.22 1854.21 1307.3 1871.83 1314.61 1885.16 1329.22 1898.48 1342.74 1987.27 1433.25 2103.75 1496.73 2228.55 1522.65L2240.85 1524.78 2228.55 1522.79C2103.75 1496.86 1987.27 1433.38 1898.48 1342.87 1885.16 1329.36 1871.83 1314.74 1854.21 1307.43 1834.78 1299.35 1812.69 1301.15 1791.8 1304.03 1686.08 1318.74 1584.89 1357.32 1479.08 1372.1 1373.36 1386.89 1255.08 1373.3 1179 1299.1 1119.09 1240.63 1084.63 1145.95 1002.54 1127.35 933.853 1111.79 868.952 1159.05 803.625 1185.14 669.703 1238.59 502.942 1196.44 411.485 1085.97 388.618 1058.34 369.191 1026.13 337.815 1008.45 311.686 993.585 280.484 990.85 250.398 988.399 167.017 981.506 81.4892 974.887 0.000721833 990.692L0.000721833 1506.4 0.000721833 1846.93C107.617 1778.09 239.395 1740.28 366.356 1712.06 503.027 1681.63 656.98 1660.73 774.056 1736.7 817.292 1764.75 852.37 1804.52 898.438 1827.56 992.218 1874.64 1105.76 1842 1202.21 1800.53 1298.66 1759.06 1398.54 1708.07 1502.9 1720.99 1681.78 1743.09 1788.96 1938.72 1960.36 1993.95 2028.39 2015.85 2100.48 2013.64 2172.7 2011.43 2238.73 2009.41 2304.88 2007.38 2368.15 2023.79 2405.88 2033.64 2441.13 2049.54 2475.6 2067.56ZM0.000721833 2475 2475.6 2475 2475.6 2068.51C2441.13 2050.49 2405.88 2034.6 2368.15 2024.75 2235.7 1990.41 2090.6 2036.81 1960.36 1994.91 1788.96 1939.68 1681.78 1744.05 1502.9 1721.95 1398.54 1709.03 1298.66 1760.02 1202.21 1801.49 1105.76 1842.96 992.218 1875.6 898.438 1828.52 852.37 1805.48 817.292 1765.71 774.056 1737.66 656.979 1661.68 503.027 1682.59 366.356 1713.02 239.395 1741.24 107.617 1779.05 0.000721833 1847.89Z" fill="#FFFFFF" fill-rule="evenodd" fill-opacity="0" transform="matrix(-1 0 0 1 3527 0)"/></g></svg>