<svg width="2041" height="582" xmlns="http://www.w3.org/2000/svg" xmlns:xlink="http://www.w3.org/1999/xlink" overflow="hidden"><defs><clipPath id="clip0"><rect x="1228" y="424" width="2041" height="582"/></clipPath></defs><g clip-path="url(#clip0)" transform="translate(-1228 -424)"><path d="M3268.31 901.244 3266.7 892.096 3267.04 892.172 3185.32 428.693 1233.37 772.875 1238.87 804.069 1238.53 803.983 1274.01 1005.22C1293.44 1005.2 1313.13 1003.16 1332.31 998.177 1365.65 989.495 1393.82 972.877 1420.79 956.638 1470.56 926.592 1524.27 894.679 1587.55 885.376 1730.54 864.394 1842.03 968.418 1981.5 932.646 2055.38 913.707 2114.03 858.702 2189.17 857.619 2244.38 856.817 2279.61 886.17 2321.85 904.616 2412.09 943.984 2558.21 930.475 2652.17 873.987 2680.09 857.198 2707.55 835.787 2743.05 832.198 2775.6 828.921 2801.56 842.125 2825.6 853.289 2944.4 908.342 3108.62 924.526 3268.31 901.244Z" fill="#FFFFFF" fill-rule="evenodd" fill-opacity="0.0117647"/><path d="M1984.82 0.012956 1984.82 483.375-0.881955 483.375-0.881955 449.905 32.1801 434.672C43.5783 429.83 55.2383 425.283 67.0604 421.023 160.416 387.419 274.039 368.69 375.94 390.126 481.093 412.208 578.173 475.236 683.662 453.847 716.749 447.126 744.192 432.634 772.333 419.717 941.181 342.061 1164.43 313.696 1367.62 344.115 1410.44 350.534 1454.42 359.476 1497.45 353.767 1567.36 344.505 1609.7 301.337 1659.55 268.991 1737.53 218.314 1850.12 189.806 1961.82 192.473 1969.4 192.649 1976.92 192.951 1984.5 193.39L1984.5 0.148439Z" fill="#FFFFFF" fill-rule="evenodd" fill-opacity="0.0117647" transform="matrix(0.984808 -0.173648 -0.173648 -0.984808 1312.93 1248.62)"/><path d="M0 347 0 0 1972 347Z" fill="#FFFFFF" fill-rule="evenodd" fill-opacity="0.0196078" transform="matrix(1 0 0 -1 1229 771)"/></g></svg>